<svg id="visual" viewBox="0 0 900 450" width="900" height="450" xmlns="http://www.w3.org/2000/svg" xmlns:xlink="http://www.w3.org/1999/xlink" version="1.1"><rect x="0" y="0" width="900" height="450" fill="#dd9eb9"></rect><defs><linearGradient id="grad1_0" x1="50%" y1="0%" x2="100%" y2="100%"><stop offset="10%" stop-color="#ebcc9e" stop-opacity="1"></stop><stop offset="90%" stop-color="#ebcc9e" stop-opacity="1"></stop></linearGradient></defs><defs><linearGradient id="grad1_1" x1="50%" y1="0%" x2="100%" y2="100%"><stop offset="10%" stop-color="#ebcc9e" stop-opacity="1"></stop><stop offset="90%" stop-color="#efc49d" stop-opacity="1"></stop></linearGradient></defs><defs><linearGradient id="grad1_2" x1="50%" y1="0%" x2="100%" y2="100%"><stop offset="10%" stop-color="#f2bb9e" stop-opacity="1"></stop><stop offset="90%" stop-color="#efc49d" stop-opacity="1"></stop></linearGradient></defs><defs><linearGradient id="grad1_3" x1="50%" y1="0%" x2="100%" y2="100%"><stop offset="10%" stop-color="#f2bb9e" stop-opacity="1"></stop><stop offset="90%" stop-color="#f3b4a1" stop-opacity="1"></stop></linearGradient></defs><defs><linearGradient id="grad1_4" x1="50%" y1="0%" x2="100%" y2="100%"><stop offset="10%" stop-color="#f1ada6" stop-opacity="1"></stop><stop offset="90%" stop-color="#f3b4a1" stop-opacity="1"></stop></linearGradient></defs><defs><linearGradient id="grad1_5" x1="50%" y1="0%" x2="100%" y2="100%"><stop offset="10%" stop-color="#f1ada6" stop-opacity="1"></stop><stop offset="90%" stop-color="#eda7ac" stop-opacity="1"></stop></linearGradient></defs><defs><linearGradient id="grad1_6" x1="50%" y1="0%" x2="100%" y2="100%"><stop offset="10%" stop-color="#e6a2b2" stop-opacity="1"></stop><stop offset="90%" stop-color="#eda7ac" stop-opacity="1"></stop></linearGradient></defs><defs><linearGradient id="grad1_7" x1="50%" y1="0%" x2="100%" y2="100%"><stop offset="10%" stop-color="#e6a2b2" stop-opacity="1"></stop><stop offset="90%" stop-color="#dd9eb9" stop-opacity="1"></stop></linearGradient></defs><defs><linearGradient id="grad2_0" x1="0%" y1="0%" x2="50%" y2="100%"><stop offset="10%" stop-color="#ebcc9e" stop-opacity="1"></stop><stop offset="90%" stop-color="#ebcc9e" stop-opacity="1"></stop></linearGradient></defs><defs><linearGradient id="grad2_1" x1="0%" y1="0%" x2="50%" y2="100%"><stop offset="10%" stop-color="#efc49d" stop-opacity="1"></stop><stop offset="90%" stop-color="#ebcc9e" stop-opacity="1"></stop></linearGradient></defs><defs><linearGradient id="grad2_2" x1="0%" y1="0%" x2="50%" y2="100%"><stop offset="10%" stop-color="#efc49d" stop-opacity="1"></stop><stop offset="90%" stop-color="#f2bb9e" stop-opacity="1"></stop></linearGradient></defs><defs><linearGradient id="grad2_3" x1="0%" y1="0%" x2="50%" y2="100%"><stop offset="10%" stop-color="#f3b4a1" stop-opacity="1"></stop><stop offset="90%" stop-color="#f2bb9e" stop-opacity="1"></stop></linearGradient></defs><defs><linearGradient id="grad2_4" x1="0%" y1="0%" x2="50%" y2="100%"><stop offset="10%" stop-color="#f3b4a1" stop-opacity="1"></stop><stop offset="90%" stop-color="#f1ada6" stop-opacity="1"></stop></linearGradient></defs><defs><linearGradient id="grad2_5" x1="0%" y1="0%" x2="50%" y2="100%"><stop offset="10%" stop-color="#eda7ac" stop-opacity="1"></stop><stop offset="90%" stop-color="#f1ada6" stop-opacity="1"></stop></linearGradient></defs><defs><linearGradient id="grad2_6" x1="0%" y1="0%" x2="50%" y2="100%"><stop offset="10%" stop-color="#eda7ac" stop-opacity="1"></stop><stop offset="90%" stop-color="#e6a2b2" stop-opacity="1"></stop></linearGradient></defs><defs><linearGradient id="grad2_7" x1="0%" y1="0%" x2="50%" y2="100%"><stop offset="10%" stop-color="#dd9eb9" stop-opacity="1"></stop><stop offset="90%" stop-color="#e6a2b2" stop-opacity="1"></stop></linearGradient></defs><g transform="translate(900, 0)"><path d="M0 450C-48.1 447.2 -96.2 444.4 -139.1 428C-181.9 411.5 -219.5 381.5 -255.7 351.9C-291.8 322.4 -326.5 293.4 -355.2 258C-383.8 222.7 -406.5 181 -421.3 136.9C-436.1 92.8 -443.1 46.4 -450 0L0 0Z" fill="#e2a0b6"></path><path d="M0 393.8C-42.1 391.3 -84.2 388.9 -121.7 374.5C-159.2 360.1 -192.1 333.8 -223.7 307.9C-255.4 282.1 -285.7 256.7 -310.8 225.8C-335.9 194.8 -355.7 158.3 -368.7 119.8C-381.6 81.2 -387.7 40.6 -393.7 0L0 0Z" fill="#eaa4af"></path><path d="M0 337.5C-36.1 335.4 -72.1 333.3 -104.3 321C-136.4 308.7 -164.7 286.1 -191.8 263.9C-218.9 241.8 -244.9 220 -266.4 193.5C-287.9 167 -304.9 135.7 -316 102.7C-327.1 69.6 -332.3 34.8 -337.5 0L0 0Z" fill="#efaaa9"></path><path d="M0 281.3C-30.1 279.5 -60.1 277.8 -86.9 267.5C-113.7 257.2 -137.2 238.4 -159.8 220C-182.4 201.5 -204.1 183.4 -222 161.3C-239.9 139.2 -254.1 113.1 -263.3 85.6C-272.6 58 -276.9 29 -281.2 0L0 0Z" fill="#f2b0a3"></path><path d="M0 225C-24 223.6 -48.1 222.2 -69.5 214C-91 205.8 -109.8 190.7 -127.8 176C-145.9 161.2 -163.2 146.7 -177.6 129C-191.9 111.3 -203.3 90.5 -210.7 68.4C-218.1 46.4 -221.5 23.2 -225 0L0 0Z" fill="#f3b89f"></path><path d="M0 168.8C-18 167.7 -36.1 166.7 -52.1 160.5C-68.2 154.3 -82.3 143 -95.9 132C-109.4 120.9 -122.4 110 -133.2 96.8C-143.9 83.5 -152.4 67.9 -158 51.3C-163.5 34.8 -166.1 17.4 -168.7 0L0 0Z" fill="#f1bf9d"></path><path d="M0 112.5C-12 111.8 -24 111.1 -34.8 107C-45.5 102.9 -54.9 95.4 -63.9 88C-73 80.6 -81.6 73.3 -88.8 64.5C-96 55.7 -101.6 45.2 -105.3 34.2C-109 23.2 -110.8 11.6 -112.5 0L0 0Z" fill="#edc89d"></path><path d="M0 56.3C-6 55.9 -12 55.6 -17.4 53.5C-22.7 51.4 -27.4 47.7 -32 44C-36.5 40.3 -40.8 36.7 -44.4 32.3C-48 27.8 -50.8 22.6 -52.7 17.1C-54.5 11.6 -55.4 5.8 -56.2 0L0 0Z" fill="#ebcc9e"></path></g><g transform="translate(0, 450)"><path d="M0 -450C40.9 -426.3 81.9 -402.6 127.3 -391.8C172.8 -381.1 222.7 -383.3 264.5 -364.1C306.3 -344.8 339.8 -304 359.2 -261C378.6 -218 383.8 -172.7 396.6 -128.9C409.4 -85 429.7 -42.5 450 0L0 0Z" fill="#e2a0b6"></path><path d="M0 -393.7C35.8 -373 71.6 -352.3 111.4 -342.9C151.2 -333.5 194.9 -335.4 231.4 -318.6C268 -301.7 297.3 -266 314.3 -228.4C331.3 -190.7 335.8 -151.1 347 -112.8C358.2 -74.4 376 -37.2 393.8 0L0 0Z" fill="#eaa4af"></path><path d="M0 -337.5C30.7 -319.7 61.4 -301.9 95.5 -293.9C129.6 -285.8 167.1 -287.5 198.4 -273C229.7 -258.6 254.9 -228 269.4 -195.7C283.9 -163.5 287.9 -129.5 297.4 -96.6C307 -63.7 322.3 -31.9 337.5 0L0 0Z" fill="#efaaa9"></path><path d="M0 -281.2C25.6 -266.4 51.2 -251.6 79.6 -244.9C108 -238.2 139.2 -239.6 165.3 -227.5C191.4 -215.5 212.4 -190 224.5 -163.1C236.6 -136.2 239.9 -108 247.9 -80.5C255.9 -53.1 268.6 -26.6 281.3 0L0 0Z" fill="#f2b0a3"></path><path d="M0 -225C20.5 -213.1 40.9 -201.3 63.7 -195.9C86.4 -190.5 111.4 -191.7 132.3 -182C153.1 -172.4 169.9 -152 179.6 -130.5C189.3 -109 191.9 -86.4 198.3 -64.4C204.7 -42.5 214.8 -21.2 225 0L0 0Z" fill="#f3b89f"></path><path d="M0 -168.7C15.3 -159.9 30.7 -151 47.7 -146.9C64.8 -142.9 83.5 -143.8 99.2 -136.5C114.8 -129.3 127.4 -114 134.7 -97.9C142 -81.7 143.9 -64.8 148.7 -48.3C153.5 -31.9 161.1 -15.9 168.8 0L0 0Z" fill="#f1bf9d"></path><path d="M0 -112.5C10.2 -106.6 20.5 -100.6 31.8 -98C43.2 -95.3 55.7 -95.8 66.1 -91C76.6 -86.2 85 -76 89.8 -65.2C94.6 -54.5 96 -43.2 99.1 -32.2C102.3 -21.2 107.4 -10.6 112.5 0L0 0Z" fill="#edc89d"></path><path d="M0 -56.2C5.1 -53.3 10.2 -50.3 15.9 -49C21.6 -47.6 27.8 -47.9 33.1 -45.5C38.3 -43.1 42.5 -38 44.9 -32.6C47.3 -27.2 48 -21.6 49.6 -16.1C51.2 -10.6 53.7 -5.3 56.3 0L0 0Z" fill="#ebcc9e"></path></g></svg>